<svg width="400" height="400" xmlns="http://www.w3.org/2000/svg">

 <g>
  <title>background</title>
  <rect fill="none" id="canvas_background" height="402" width="582" y="-1" x="-1"/>
 </g>
 <g>
  <title>Layer 1</title>
  <path id="svg_2" fill="#FFFFFF" d="m142.899994,24.200001c-45.299995,15.5 -83.899994,49.399998 -105.399994,92.299999c-7.5,14.800003 -12.9,30.5 -16.200001,46.800003c-8.199999,40.399994 -2.5,83.5 16.100002,120.300003c12.099998,24 29.5,45.399994 50.5,62.100006c19.900002,15.799988 42.999992,27.599976 67.599998,34.099976c31,8.300018 64,8.100006 95.199997,1c28.199997,-6.5 54.900009,-20 76.199997,-39.599976c22.5,-20.700012 38.600006,-47.900024 47.100006,-77.200012c9.299988,-31.899994 10.5,-66 4.699982,-98.800003c-58.299988,0 -116.699982,0 -174.999985,0c0,24.199997 0,48.400009 0,72.600006c33.799988,0 67.599991,0 101.399979,0c-3.899994,23.199997 -17.699982,44.400009 -37.199982,57.499985c-12.300003,8.300018 -26.400009,13.600006 -41,16.200012c-14.600006,2.5 -29.800003,2.799988 -44.400009,-0.100006c-14.899994,-3 -29,-9.199982 -41.399994,-17.899994c-19.800003,-13.899994 -34.900002,-34.200012 -42.599998,-57.100006c-7.900002,-23.299988 -8,-49.199997 0,-72.399994c5.599998,-16.399994 14.799995,-31.5 27,-43.900002c14.999992,-15.400002 34.499992,-26.400002 55.599998,-30.900002c18,-3.799995 37,-3.099998 54.600006,2.200005c15,4.5 28.800003,12.799995 40.099991,23.599998c11.399994,-11.400002 22.799988,-22.800003 34.200012,-34.199997c6,-6.100006 12.299988,-12 18.099976,-18.300003c-17.299988,-16 -37.699982,-28.900002 -59.899994,-37.1c-39.999985,-14.799999 -84.999985,-15.099999 -125.299988,-1.199999z"/>
  <path id="svg_4" fill="#EA4335" d="m142.899994,24.200001c40.199997,-13.900001 85.300003,-13.6 125.300018,1.099998c22.199982,8.200001 42.5,21 59.899994,37.100002c-5.800018,6.299995 -12.100006,12.199997 -18.100006,18.299995c-11.399994,11.400002 -22.799988,22.800003 -34.200012,34.200005c-11.299988,-10.800003 -25.099991,-19 -40.099991,-23.599998c-17.599991,-5.300003 -36.599991,-6.100006 -54.599991,-2.200005c-21,4.5 -40.5,15.5 -55.600006,30.900002c-12.199997,12.300003 -21.400002,27.5 -27,43.899994c-20.300003,-15.799988 -40.599998,-31.5 -61,-47.299995c21.5,-43 60.099998,-76.899998 105.399994,-92.399998z"/>
  <path id="svg_6" fill="#FBBC05" d="m21.4,163.199997c3.300001,-16.199997 8.700001,-32 16.199999,-46.799995c20.300003,15.799995 40.599998,31.499992 61,47.299995c-8,23.300003 -8,49.199997 0,72.400009c-20.299995,15.799988 -40.599998,31.600006 -60.899998,47.299988c-18.800001,-36.699997 -24.500001,-79.799988 -16.300001,-120.199997z"/>
  <path id="svg_8" fill="#4285F4" d="m203.699997,165.100006c58.300003,0 116.699997,0 175.000015,0c5.799988,32.699997 4.5,66.800003 -4.700012,98.800018c-8.5,29.299988 -24.600006,56.5 -47.100006,77.199982c-19.699982,-15.299988 -39.399994,-30.600006 -59.100006,-45.899994c19.5,-13.100006 33.300018,-34.299988 37.200012,-57.500015c-33.799988,0 -67.600006,0 -101.399994,0c0.099991,-24.199997 0.099991,-48.399994 0.099991,-72.599991z"/>
  <path id="svg_10" fill="#34A853" d="m37.5,283.5c20.299999,-15.700012 40.599998,-31.5 60.900002,-47.300003c7.799995,22.900009 22.799995,43.199997 42.599998,57.099991c12.399994,8.700012 26.600006,14.900024 41.399994,17.900024c14.600006,3 29.700012,2.599976 44.400009,0.099976c14.599991,-2.599976 28.699997,-7.899994 40.999985,-16.199982c19.700012,15.299988 39.400024,30.600006 59.100006,45.899994c-21.299988,19.700012 -48,33.100006 -76.199997,39.600006c-31.199997,7.100006 -64.199982,7.299988 -95.199982,-1c-24.600006,-6.5 -47.700005,-18.200012 -67.600006,-34.100006c-20.900009,-16.600006 -38.300011,-38 -50.400009,-62z"/>
 </g>
</svg>